# xmcd
#
# Track frame offsets:
#	150
#	17632
#	35242
#	49044
#	65902
#	86727
#	101434
#	118659
#	122604
#	137742
#	155257
#	188364
#
# Disc length: 2749 seconds
#
# Revision: 0
# Processed by: cddbd v1.5.1PL0 Copyright (c) Steve Scherf et al.
# Submitted via: dBpowerAMP V4.0
#
DISCID=9e0abb0c
DTITLE=Truth Hurts - Ready Now
DYEAR=2004
DGENRE=Soul
TTITLE0=Knock Knock
TTITLE1=Ready Now
TTITLE2=Ride
TTITLE3=Love U Better
TTITLE4=Catch 22
TTITLE5=Phone Sex
TTITLE6=Whatchu Sayin' 
TTITLE7=Lifetime (Interlude)
TTITLE8=Lifetime
TTITLE9=Can't Be Mad
TTITLE10=U
TTITLE11=Ready Now (Remix feat WC)
EXTD=
EXTT0=
EXTT1=
EXTT2=
EXTT3=
EXTT4=
EXTT5=
EXTT6=
EXTT7=
EXTT8=
EXTT9=
EXTT10=
EXTT11=
PLAYORDER=
